<svg version="1.1" id="Layer_1" xmlns="http://www.w3.org/2000/svg" xmlns:xlink="http://www.w3.org/1999/xlink" x="0px" y="0px"
	 width="100%" viewBox="0 0 500 500" enable-background="new 0 0 500 500" xml:space="preserve">
<path fill="#000000" opacity="1.000000" stroke="none" 
	d="
M501.000000,215.000000 
	C501.000000,310.293030 501.000000,405.586060 501.000000,500.939545 
	C334.444092,500.939545 167.888184,500.939545 1.000000,500.939545 
	C1.000000,419.312195 1.000000,337.623962 1.466598,255.475494 
	C6.927154,254.949341 11.921113,254.883362 17.386086,254.899979 
	C37.943733,254.922745 58.030365,254.862915 78.534149,254.866669 
	C81.474693,254.930252 83.998093,254.930252 86.521492,254.930252 
	C86.791573,254.316788 87.061653,253.703323 87.331734,253.089874 
	C72.827866,236.439758 58.323994,219.789658 43.877205,202.775208 
	C42.994041,201.408279 42.053799,200.405701 41.113552,199.403107 
	C39.999760,205.536835 40.204338,211.245392 39.926296,216.930344 
	C39.747322,220.589737 40.653458,223.340820 43.975388,225.046600 
	C43.980503,225.004761 43.896809,224.994827 43.989021,225.269989 
	C44.394886,225.761917 44.708542,225.978683 45.043217,226.597473 
	C44.813877,230.730118 45.706295,235.092255 44.068432,238.056152 
	C40.935970,243.724731 32.977268,244.624435 28.283012,240.869675 
	C22.507463,236.250076 22.090986,229.046265 26.974022,223.365219 
	C28.150179,221.996857 28.421200,219.850494 29.469582,217.822281 
	C29.828186,201.026932 29.825674,184.471207 29.893316,167.460449 
	C29.788836,161.735077 29.614202,156.464767 29.434351,151.036987 
	C23.968523,151.036987 19.835773,151.189926 15.718860,150.999878 
	C10.041124,150.737762 5.389143,152.152557 2.718072,157.678543 
	C2.567625,157.989807 1.591713,157.902039 1.000000,158.000000 
	C1.000000,105.693428 1.000000,53.386860 1.000000,1.040146 
	C167.554657,1.040146 334.109344,1.040146 501.000000,1.040146 
	C501.000000,66.021049 501.000000,131.042679 500.531372,196.538986 
	C482.117462,197.013672 464.172150,197.013672 446.334045,197.013672 
	C444.354340,207.918701 450.800171,213.709641 460.563599,213.064285 
	C466.782959,212.653183 473.051605,212.987350 479.298157,212.987350 
	C479.544983,213.555878 479.791840,214.124405 480.038696,214.692947 
	C475.616547,217.491501 471.431000,220.799255 466.724701,222.986252 
	C455.784210,228.070267 444.544434,227.840820 433.623047,222.816269 
	C425.717957,219.179398 419.501282,213.517685 419.118622,204.244141 
	C418.733704,194.914963 423.145569,187.738846 431.789703,183.779816 
	C435.419342,182.117447 439.350037,180.966141 443.257263,180.085831 
	C452.296539,178.049225 460.701233,179.966507 468.570190,184.744888 
	C472.707886,187.257477 477.088135,187.876587 481.781433,186.116241 
	C485.414856,184.753403 489.172058,183.720490 493.430054,182.363831 
	C492.341034,180.986343 491.607025,179.823318 490.652130,178.885132 
	C475.249390,163.751831 456.429901,161.683167 436.472229,165.434250 
	C424.867828,167.615326 414.359802,172.789474 407.186768,182.545029 
	C399.418854,193.109619 398.089508,204.686066 403.415802,217.048386 
	C408.157501,228.053772 416.980042,233.891373 427.591827,237.868652 
	C439.223755,242.228256 451.183655,243.589890 463.334747,240.926834 
	C479.020264,237.489151 492.822144,231.131836 499.613800,215.060043 
	C499.690979,214.877396 500.521271,215.012970 501.000000,215.000000 
M50.004292,180.002884 
	C50.004292,180.002884 50.006798,180.069839 50.544376,179.936752 
	C50.720249,179.627350 50.896122,179.317947 51.004940,179.006058 
	C51.004940,179.006058 51.010563,179.072937 51.539753,178.932068 
	C51.712215,178.625656 51.884678,178.319260 51.999767,178.004517 
	C51.999767,178.004517 52.023941,178.057236 52.606346,177.853638 
	C52.683620,177.470856 52.760895,177.088074 52.963802,176.479568 
	C52.963802,176.479568 52.967949,176.221283 53.483864,175.959335 
	C53.676636,175.639633 53.869404,175.319946 54.003052,175.003006 
	C54.003052,175.003006 54.034439,175.053192 54.712791,174.699432 
	C55.083614,172.704834 55.454441,170.710236 56.220177,168.167084 
	C58.958984,163.101425 63.072105,159.864151 70.352829,161.962326 
	C74.490372,163.154694 78.431839,168.824326 78.034309,173.172409 
	C77.651901,177.355148 73.121407,183.187805 69.787880,182.927200 
	C64.102798,182.482727 59.383034,183.204514 57.119469,189.292175 
	C56.986649,189.649368 56.293091,189.774918 55.899700,190.062012 
	C52.784096,192.335617 51.933640,194.796005 54.948795,197.919815 
	C56.161743,199.176453 56.786411,200.983292 57.924194,202.332840 
	C70.787514,217.590698 83.703072,232.804489 96.594376,248.038773 
	C101.388435,253.704132 103.349899,253.299942 106.759201,245.524567 
	C106.832840,215.024948 106.912834,184.525330 106.939781,154.025681 
	C106.940392,153.334991 106.339745,152.643768 105.997719,152.000259 
	C105.997719,152.000259 106.046867,151.982529 105.592560,151.236389 
	C84.729652,151.162964 63.866760,151.080338 43.003796,151.056519 
	C42.316597,151.055756 41.628719,151.652390 41.002052,151.978134 
	C41.002052,151.978134 40.980831,151.920547 40.241669,152.392059 
	C40.241669,164.774902 40.241669,177.157745 40.241669,189.540588 
	C40.689514,189.631699 41.137363,189.722794 41.585209,189.813889 
	C42.402233,188.879974 43.219257,187.946060 43.987854,186.992767 
	C43.987854,186.992767 43.993607,187.044617 44.517288,186.894836 
	C44.701550,186.593582 44.885807,186.292328 44.992252,185.980713 
	C44.992252,185.980713 44.981579,186.058487 45.462753,185.932480 
	C45.825096,185.754501 45.939468,185.475128 45.945431,184.620575 
	C45.945431,184.620575 45.997978,184.129456 46.515266,183.918060 
	C46.700871,183.607346 46.886471,183.296646 46.988129,182.989441 
	C46.988129,182.989441 46.991371,183.073395 47.517738,182.915665 
	C47.700279,182.611328 47.882816,182.306992 47.998569,182.001312 
	C47.998569,182.001312 48.005104,182.067795 48.538483,181.930786 
	C48.713852,181.623291 48.889225,181.315796 49.001102,181.001053 
	C49.001102,181.001053 49.008625,181.064529 49.542938,180.930893 
	C49.718987,180.623428 49.895031,180.315948 50.004292,180.002884 
M273.077087,320.536133 
	C273.384277,320.731598 273.691437,320.927032 274.139008,321.547760 
	C274.314392,321.818146 274.562500,321.968658 275.076080,322.522095 
	C275.381592,322.717194 275.687103,322.912292 276.279236,323.734711 
	C284.248016,332.091888 305.283112,330.530426 308.016876,318.667969 
	C305.203522,317.216217 302.279510,315.707367 299.455261,314.249969 
	C293.088928,321.119720 288.042328,319.789551 284.554413,316.716278 
	C281.118896,313.689209 280.806915,305.862213 284.212982,302.656006 
	C288.393219,298.720978 292.725159,298.114563 299.660858,304.693054 
	C302.469696,303.213379 305.294891,301.725067 308.006256,300.296722 
	C304.790161,287.551697 281.005737,286.253693 273.365509,298.151611 
	C272.895569,299.092010 272.425629,300.032410 271.998779,301.001221 
	C271.998779,301.001221 271.963715,300.964081 271.384277,301.212769 
	C271.309082,301.814087 271.233887,302.415436 271.022461,303.618835 
	C271.007721,304.030090 270.992950,304.441376 270.279663,305.324188 
	C270.515106,308.266937 270.750580,311.209656 271.025208,314.583923 
	C271.025208,314.583923 271.166412,314.993622 271.023926,315.679657 
	C271.336395,316.461639 271.648834,317.243652 272.001678,318.009552 
	C272.001678,318.009552 271.960083,318.009186 272.005371,318.642181 
	C272.325470,319.119568 272.645538,319.596924 272.984558,320.009644 
	C272.984558,320.009644 272.917999,319.999207 273.077087,320.536133 
M418.886444,327.947052 
	C420.272705,327.909180 421.658997,327.871307 423.897583,327.977081 
	C425.712677,327.977081 427.527771,327.977081 429.304810,327.977081 
	C430.101562,326.142212 431.166656,324.584717 431.433563,322.900757 
	C432.133209,318.486633 434.728699,317.621368 438.720520,317.931274 
	C443.019958,318.265137 447.366058,318.078064 451.689362,317.993744 
	C454.075592,317.947205 455.690857,318.253906 456.221741,321.201721 
	C457.217224,326.729370 460.605591,329.196838 466.380005,328.043640 
	C467.939423,327.732239 469.613831,327.996429 471.713898,327.996429 
	C470.485352,324.994385 469.497772,322.423828 468.391785,319.905273 
	C463.226471,308.143066 457.971069,296.419983 452.869843,284.630157 
	C450.761047,279.756317 444.131012,276.948914 439.100983,279.159943 
	C438.475189,279.435028 437.953400,280.245453 437.657074,280.926819 
	C432.732819,292.250977 427.852356,303.594116 422.338440,315.256470 
	C421.615997,317.177704 420.893555,319.098969 420.012268,321.441559 
	C420.012268,321.441559 419.948853,321.887390 419.360107,322.200165 
	C418.781586,323.350861 418.203064,324.501526 417.600983,325.699066 
	C416.993958,324.994507 416.520538,324.445007 415.996979,323.163971 
	C415.397217,321.572205 414.797485,319.980408 414.234863,318.487152 
	C409.573883,319.596466 405.721771,319.748657 405.238098,314.365875 
	C404.844452,309.985046 405.158112,305.540588 405.158112,300.785461 
	C408.688812,300.785461 411.630890,300.785461 414.648468,300.785461 
	C414.648468,297.364319 414.648468,294.313171 414.648468,290.754669 
	C411.242432,290.754669 408.178741,290.754669 405.134888,290.754669 
	C405.005859,287.961060 404.900635,285.683105 404.791779,283.325867 
	C401.040894,283.325867 397.648895,283.325867 394.135376,283.325867 
	C394.004242,286.064850 393.888702,288.477814 393.776215,290.827209 
	C391.654877,290.975128 390.036804,291.087952 388.350647,291.205536 
	C388.350647,294.558075 388.350647,297.620605 388.350647,300.643127 
	C390.402130,300.927551 392.128937,301.166962 393.986938,301.424561 
	C393.986938,306.249390 394.352631,310.772186 393.917023,315.216400 
	C392.707550,327.555634 405.604431,331.399017 414.627594,327.967072 
	C415.773743,327.911804 416.919922,327.856537 418.886444,327.947052 
M476.030212,280.964600 
	C476.030212,296.508179 476.030212,312.051758 476.030212,327.821442 
	C479.954163,327.821442 483.395996,327.821442 487.697784,327.605865 
	C487.697784,311.521271 487.697784,295.436676 487.697784,278.543610 
	C483.674286,279.068665 479.932556,279.556946 476.030212,280.964600 
M345.981201,300.124023 
	C344.060028,297.654297 342.587463,294.526154 340.126160,292.849152 
	C334.669952,289.131622 328.465088,289.273193 322.161652,290.900177 
	C311.608673,293.624054 311.584351,293.529755 316.634888,302.844727 
	C326.603180,297.341736 334.427917,298.588837 334.555267,306.002228 
	C330.573242,306.002228 326.567596,305.715088 322.620972,306.074921 
	C317.698059,306.523773 312.924652,308.164215 311.950256,313.718903 
	C311.411865,316.788177 311.574097,320.767761 313.138000,323.258698 
	C316.673523,328.890076 323.408417,330.375000 330.207428,328.335571 
	C332.706238,327.586060 334.856995,326.329376 338.012177,327.704468 
	C340.398682,328.744629 343.853455,327.333771 346.987305,326.084167 
	C346.999847,320.986664 347.134918,315.885468 346.981293,310.792969 
	C346.881165,307.473969 346.361420,304.167633 345.981201,300.124023 
M301.026550,200.498291 
	C301.027832,204.997528 300.917877,209.500153 301.054718,213.995270 
	C301.302490,222.135483 304.410645,228.594406 311.509888,233.254257 
	C320.008698,238.832748 329.492157,240.935226 339.260284,241.885498 
	C351.011139,243.028656 362.401672,241.079437 373.571167,237.064468 
	C381.691864,234.145401 389.961365,223.776474 389.979462,215.072906 
	C390.005066,202.741516 390.004425,190.409973 389.979523,178.078568 
	C389.967987,172.349457 387.184357,168.363907 381.936249,166.392212 
	C374.817963,163.717880 371.039368,166.244812 371.034515,173.694778 
	C371.026489,186.026169 370.784851,198.364288 371.126495,210.686111 
	C371.294922,216.760391 368.434204,220.386459 363.517181,222.800430 
	C354.331238,227.310165 344.741699,228.322739 334.830505,225.453629 
	C323.403809,222.145798 319.581879,219.456726 319.933868,206.215652 
	C320.186188,196.723862 320.019989,187.219559 319.959747,177.721344 
	C319.922363,171.827316 317.145935,168.102646 311.668396,166.297241 
	C304.221283,163.842682 301.003967,166.184128 301.022247,174.002945 
	C301.042114,182.501602 301.027588,191.000320 301.026550,200.498291 
M134.981766,193.177185 
	C134.975739,188.679031 135.071304,184.177414 134.918304,179.684265 
	C134.847992,177.618591 134.701614,175.387009 133.883667,173.544006 
	C130.023941,164.847412 124.040962,165.221512 116.425247,166.676086 
	C116.425247,187.710190 116.425247,208.719833 116.425247,230.623962 
	C128.937851,221.834198 140.739151,213.544098 150.486603,206.696777 
	C159.796783,215.124283 169.097977,222.731857 177.385696,231.317703 
	C183.381393,237.529099 189.388535,241.535767 198.363129,240.040710 
	C201.967255,239.440292 205.754974,239.941864 209.459122,239.941864 
	C209.611252,239.400177 209.763382,238.858490 209.915527,238.316818 
	C195.529358,224.167770 181.143188,210.018738 166.524704,195.641205 
	C180.230057,185.817078 193.150925,176.555283 206.071793,167.293488 
	C205.929199,166.865417 205.786606,166.437363 205.644028,166.009293 
	C199.569901,166.009293 193.477478,166.298599 187.427597,165.915665 
	C182.778412,165.621414 179.139191,167.241669 175.630829,169.925766 
	C171.989014,172.711914 168.247910,175.371704 164.497482,178.011795 
	C154.972519,184.716827 145.418030,191.379944 135.257172,198.492584 
	C135.137756,196.559189 135.061325,195.321701 134.981766,193.177185 
M227.716370,239.945969 
	C248.515991,239.946335 269.315643,239.962463 290.115234,239.937119 
	C296.088165,239.929840 297.055756,238.491776 295.200348,232.678391 
	C293.447601,227.186676 289.833679,224.276764 284.170959,224.084656 
	C280.015808,223.943680 275.852051,224.054733 271.692139,224.054581 
	C261.260193,224.054184 250.828262,224.054443 239.634949,224.054443 
	C240.075607,220.202072 240.781067,216.998932 240.746460,213.803818 
	C240.622772,202.390747 240.168106,190.981598 239.992188,179.568604 
	C239.839096,169.637375 236.103607,166.003418 226.223450,165.936020 
	C222.415451,165.910019 220.888977,167.024200 220.921280,171.038239 
	C221.091324,192.168030 221.174454,213.300873 220.967880,234.429520 
	C220.923019,239.015976 222.616959,240.437912 227.716370,239.945969 
M118.525879,328.003265 
	C120.606674,328.003265 122.687469,328.003265 125.126495,328.003265 
	C125.126495,321.960175 125.126495,316.688995 125.126495,310.886475 
	C132.544556,310.886475 139.607361,310.886475 146.582840,310.886475 
	C146.582840,307.286438 146.582840,304.246033 146.582840,300.851257 
	C139.246567,300.851257 132.311752,300.851257 124.987282,300.851257 
	C124.987282,298.695679 125.181473,296.877380 124.949806,295.115112 
	C124.327103,290.378235 126.051254,288.570923 130.997421,288.898987 
	C137.233627,289.312592 143.518097,288.998749 149.742462,288.998749 
	C149.742462,285.405273 149.742462,282.473236 149.742462,279.274811 
	C137.438248,279.274811 125.395683,279.274811 113.327393,279.274811 
	C113.327393,295.609924 113.327393,311.657501 113.327393,328.003998 
	C114.960030,328.003998 116.268211,328.003998 118.525879,328.003265 
M242.897018,318.022766 
	C241.523468,316.628693 240.149933,315.234619 237.779816,312.829041 
	C248.160873,312.829041 256.911835,312.829041 265.575043,312.829041 
	C267.806732,299.878845 261.633514,292.656525 251.306412,290.399780 
	C241.439636,288.243652 232.273590,291.504089 228.100601,301.574677 
	C224.239883,310.891693 228.049286,322.794830 236.420731,326.675049 
	C245.130051,330.711884 258.574768,330.389557 263.722992,321.942749 
	C262.674927,320.992584 261.136078,320.192200 260.540985,318.942413 
	C258.982544,315.669373 257.700226,315.979401 254.518097,317.489594 
	C251.467804,318.937164 247.337204,318.108307 242.897018,318.022766 
M161.623489,326.062195 
	C163.867386,326.932312 166.042419,328.191223 168.367477,328.602936 
	C176.870712,330.108704 184.356735,328.226746 190.147354,321.337341 
	C195.026337,315.532593 194.987991,308.902039 192.861115,302.288635 
	C190.885056,296.144196 182.927414,288.904541 170.821594,289.972290 
	C162.394363,290.715576 154.477463,296.268005 153.239014,303.813049 
	C151.842560,312.320587 152.425308,320.420654 161.623489,326.062195 
M366.066071,290.097626 
	C364.810242,290.419189 363.551819,290.730988 362.299042,291.063904 
	C354.025635,293.262695 349.928497,303.729706 355.842163,308.922699 
	C358.986053,311.683502 363.932556,312.416901 368.097290,313.980560 
	C370.670410,314.946655 373.303497,315.753113 375.909668,316.631195 
	C368.713440,322.330627 362.492767,318.838776 356.036438,316.293884 
	C354.738464,319.215637 353.521362,321.955322 352.139069,325.066833 
	C361.699432,329.566254 371.212250,330.846405 381.016602,326.411652 
	C385.236603,324.502808 387.061920,320.857208 386.929291,316.475342 
	C386.788391,311.819519 384.425079,308.365997 379.745453,307.068115 
	C376.623962,306.202423 373.335480,305.908447 370.255341,304.935516 
	C368.376129,304.341980 366.750458,302.945831 365.010925,301.910126 
	C366.793610,300.941132 368.619720,299.095093 370.350189,299.180756 
	C374.284698,299.375549 378.172241,300.519501 382.066559,301.275269 
	C386.063538,294.075470 385.463196,292.451843 377.708923,290.984009 
	C374.190216,290.317963 370.541931,290.336304 366.066071,290.097626 
M221.563431,300.999176 
	C222.364807,300.436371 223.809509,299.924316 223.858627,299.302124 
	C224.099014,296.256805 223.967575,293.182129 223.967575,288.926117 
	C219.030090,290.589508 215.106094,291.911469 211.252792,293.209595 
	C210.997009,287.771301 206.568100,290.420349 203.891251,290.271851 
	C202.666611,290.203918 200.232910,292.203796 200.206268,293.310608 
	C199.931641,304.718109 200.037674,316.134766 200.037674,327.679749 
	C204.249252,327.679749 207.953217,327.679749 211.994202,327.679749 
	C211.994202,321.567993 211.889297,315.775482 212.023300,309.988495 
	C212.160812,304.050049 214.813980,301.415436 221.563431,300.999176 
M69.388786,176.012558 
	C69.558937,173.963272 70.591248,170.809738 69.702904,170.116135 
	C68.268829,168.996460 65.489182,169.103455 63.449699,169.524582 
	C62.733242,169.672516 61.700375,172.950455 62.247040,173.610352 
	C63.494514,175.116211 65.605263,175.930878 67.425331,176.915359 
	C67.738029,177.084503 68.347031,176.705841 69.388786,176.012558 
M38.913723,233.389893 
	C38.913723,231.626450 38.913723,229.862991 38.913723,228.099548 
	C38.441231,227.743729 37.968739,227.387894 37.496243,227.032074 
	C35.362270,228.340103 33.102734,229.497406 31.199701,231.082687 
	C30.816664,231.401764 31.455860,234.058334 32.196526,234.401703 
	C34.184078,235.323151 36.612164,237.062195 38.913723,233.389893 
z"/>
<path fill="#8F8F8F" opacity="1.000000" stroke="none" 
	d="
M501.000000,214.532059 
	C500.521271,215.012970 499.690979,214.877396 499.613800,215.060043 
	C492.822144,231.131836 479.020264,237.489151 463.334747,240.926834 
	C451.183655,243.589890 439.223755,242.228256 427.591827,237.868652 
	C416.980042,233.891373 408.157501,228.053772 403.415802,217.048386 
	C398.089508,204.686066 399.418854,193.109619 407.186768,182.545029 
	C414.359802,172.789474 424.867828,167.615326 436.472229,165.434250 
	C456.429901,161.683167 475.249390,163.751831 490.652130,178.885132 
	C491.607025,179.823318 492.341034,180.986343 493.430054,182.363831 
	C489.172058,183.720490 485.414856,184.753403 481.781433,186.116241 
	C477.088135,187.876587 472.707886,187.257477 468.570190,184.744888 
	C460.701233,179.966507 452.296539,178.049225 443.257263,180.085831 
	C439.350037,180.966141 435.419342,182.117447 431.789703,183.779816 
	C423.145569,187.738846 418.733704,194.914963 419.118622,204.244141 
	C419.501282,213.517685 425.717957,219.179398 433.623047,222.816269 
	C444.544434,227.840820 455.784210,228.070267 466.724701,222.986252 
	C471.431000,220.799255 475.616547,217.491501 480.038696,214.692947 
	C479.791840,214.124405 479.544983,213.555878 479.298157,212.987350 
	C473.051605,212.987350 466.782959,212.653183 460.563599,213.064285 
	C450.800171,213.709641 444.354340,207.918701 446.334045,197.013672 
	C464.172150,197.013672 482.117462,197.013672 500.531372,197.006836 
	C501.000000,202.688034 501.000000,208.376083 501.000000,214.532059 
z"/>
<path fill="#EE8117" opacity="1.000000" stroke="none" 
	d="
M1.000000,158.468658 
	C1.591713,157.902039 2.567625,157.989807 2.718072,157.678543 
	C5.389143,152.152557 10.041124,150.737762 15.718860,150.999878 
	C19.835773,151.189926 23.968523,151.036987 29.434351,151.036987 
	C29.614202,156.464767 29.788836,161.735077 29.648270,167.806732 
	C29.258202,185.092667 29.183332,201.577301 29.108467,218.061920 
	C28.421200,219.850494 28.150179,221.996857 26.974022,223.365219 
	C22.090986,229.046265 22.507463,236.250076 28.283012,240.869675 
	C32.977268,244.624435 40.935970,243.724731 44.068432,238.056152 
	C45.706295,235.092255 44.813877,230.730118 44.903877,226.354340 
	C44.461281,225.471069 44.179039,225.232956 43.896805,224.994843 
	C43.896809,224.994827 43.980503,225.004761 43.931622,224.692245 
	C40.039139,218.384521 42.873543,211.579132 41.665840,205.250092 
	C41.561539,204.703506 43.064018,203.850311 43.820118,203.139557 
	C58.323994,219.789658 72.827866,236.439758 87.331734,253.089874 
	C87.061653,253.703323 86.791573,254.316788 86.521492,254.930252 
	C83.998093,254.930252 81.474693,254.930252 78.155571,254.676239 
	C76.545403,254.292633 75.731079,254.050812 74.916496,254.049911 
	C56.865089,254.030228 38.813614,254.021332 20.762327,254.072464 
	C19.479216,254.076111 18.197456,254.557922 16.915070,254.817383 
	C11.921113,254.883362 6.927154,254.949341 1.466598,255.007660 
	C1.000000,222.979111 1.000000,190.958206 1.000000,158.468658 
z"/>
<path fill="#EF8017" opacity="1.000000" stroke="none" 
	d="
M106.076729,246.045700 
	C103.349899,253.299942 101.388435,253.704132 96.594376,248.038773 
	C83.703072,232.804489 70.787514,217.590698 57.924194,202.332840 
	C56.786411,200.983292 56.161743,199.176453 54.948795,197.919815 
	C51.933640,194.796005 52.784096,192.335617 55.899700,190.062012 
	C56.293091,189.774918 56.986649,189.649368 57.119469,189.292175 
	C59.383034,183.204514 64.102798,182.482727 69.787880,182.927200 
	C73.121407,183.187805 77.651901,177.355148 78.034309,173.172409 
	C78.431839,168.824326 74.490372,163.154694 70.352829,161.962326 
	C63.072105,159.864151 58.958984,163.101425 55.711273,168.658493 
	C54.813061,171.117661 54.423752,173.085434 54.034439,175.053192 
	C54.034439,175.053192 54.003052,175.003006 53.798042,175.153076 
	C53.384670,175.609192 53.176311,175.915237 52.967949,176.221283 
	C52.967949,176.221283 52.963802,176.479568 52.715637,176.788406 
	C52.319633,177.417236 52.171787,177.737244 52.023941,178.057236 
	C52.023941,178.057236 51.999767,178.004517 51.805946,178.133209 
	C51.411602,178.532242 51.211082,178.802597 51.010563,179.072937 
	C51.010563,179.072937 51.004940,179.006058 50.816193,179.135208 
	C50.420563,179.532852 50.213684,179.801346 50.006802,180.069839 
	C50.006798,180.069839 50.004292,180.002884 49.812180,180.128235 
	C49.416248,180.523895 49.212437,180.794205 49.008625,181.064529 
	C49.008625,181.064529 49.001102,181.001053 48.807808,181.128052 
	C48.411373,181.525970 48.208237,181.796890 48.005104,182.067795 
	C48.005104,182.067795 47.998569,182.001312 47.811729,182.135468 
	C47.413719,182.537537 47.202549,182.805466 46.991371,183.073395 
	C46.991371,183.073395 46.988129,182.989441 46.815552,183.142487 
	C46.427975,183.573502 46.212978,183.851471 45.997978,184.129456 
	C45.997978,184.129456 45.945431,184.620575 45.724117,185.004852 
	C45.301281,185.590607 45.127541,185.813736 44.981579,186.058487 
	C44.981579,186.058487 44.992252,185.980713 44.788223,186.088684 
	C44.387329,186.479324 44.190468,186.761963 43.993607,187.044617 
	C43.993607,187.044617 43.987854,186.992767 43.624844,186.929840 
	C42.532150,185.091125 41.213432,183.329376 41.170662,181.537201 
	C40.935154,171.669083 41.011482,161.793549 40.980831,151.920547 
	C40.980831,151.920547 41.002052,151.978134 41.443741,151.992096 
	C63.272575,151.998230 84.659721,151.990387 106.046867,151.982544 
	C106.046867,151.982529 105.997719,152.000259 105.972610,152.447189 
	C105.990570,183.944641 106.033653,214.995178 106.076729,246.045700 
z"/>
<path fill="#8F8F8F" opacity="1.000000" stroke="none" 
	d="
M301.027283,199.998657 
	C301.027588,191.000320 301.042114,182.501602 301.022247,174.002945 
	C301.003967,166.184128 304.221283,163.842682 311.668396,166.297241 
	C317.145935,168.102646 319.922363,171.827316 319.959747,177.721344 
	C320.019989,187.219559 320.186188,196.723862 319.933868,206.215652 
	C319.581879,219.456726 323.403809,222.145798 334.830505,225.453629 
	C344.741699,228.322739 354.331238,227.310165 363.517181,222.800430 
	C368.434204,220.386459 371.294922,216.760391 371.126495,210.686111 
	C370.784851,198.364288 371.026489,186.026169 371.034515,173.694778 
	C371.039368,166.244812 374.817963,163.717880 381.936249,166.392212 
	C387.184357,168.363907 389.967987,172.349457 389.979523,178.078568 
	C390.004425,190.409973 390.005066,202.741516 389.979462,215.072906 
	C389.961365,223.776474 381.691864,234.145401 373.571167,237.064468 
	C362.401672,241.079437 351.011139,243.028656 339.260284,241.885498 
	C329.492157,240.935226 320.008698,238.832748 311.509888,233.254257 
	C304.410645,228.594406 301.302490,222.135483 301.054718,213.995270 
	C300.917877,209.500153 301.027832,204.997528 301.027283,199.998657 
z"/>
<path fill="#8F8F8F" opacity="1.000000" stroke="none" 
	d="
M134.983337,193.630692 
	C135.061325,195.321701 135.137756,196.559189 135.257172,198.492584 
	C145.418030,191.379944 154.972519,184.716827 164.497482,178.011795 
	C168.247910,175.371704 171.989014,172.711914 175.630829,169.925766 
	C179.139191,167.241669 182.778412,165.621414 187.427597,165.915665 
	C193.477478,166.298599 199.569901,166.009293 205.644028,166.009293 
	C205.786606,166.437363 205.929199,166.865417 206.071793,167.293488 
	C193.150925,176.555283 180.230057,185.817078 166.524704,195.641205 
	C181.143188,210.018738 195.529358,224.167770 209.915527,238.316818 
	C209.763382,238.858490 209.611252,239.400177 209.459122,239.941864 
	C205.754974,239.941864 201.967255,239.440292 198.363129,240.040710 
	C189.388535,241.535767 183.381393,237.529099 177.385696,231.317703 
	C169.097977,222.731857 159.796783,215.124283 150.486603,206.696777 
	C140.739151,213.544098 128.937851,221.834198 116.425247,230.623962 
	C116.425247,208.719833 116.425247,187.710190 116.425247,166.676086 
	C124.040962,165.221512 130.023941,164.847412 133.883667,173.544006 
	C134.701614,175.387009 134.847992,177.618591 134.918304,179.684265 
	C135.071304,184.177414 134.975739,188.679031 134.983337,193.630692 
z"/>
<path fill="#8E8E8E" opacity="1.000000" stroke="none" 
	d="
M227.244110,239.946030 
	C222.616959,240.437912 220.923019,239.015976 220.967880,234.429520 
	C221.174454,213.300873 221.091324,192.168030 220.921280,171.038239 
	C220.888977,167.024200 222.415451,165.910019 226.223450,165.936020 
	C236.103607,166.003418 239.839096,169.637375 239.992188,179.568604 
	C240.168106,190.981598 240.622772,202.390747 240.746460,213.803818 
	C240.781067,216.998932 240.075607,220.202072 239.634949,224.054443 
	C250.828262,224.054443 261.260193,224.054184 271.692139,224.054581 
	C275.852051,224.054733 280.015808,223.943680 284.170959,224.084656 
	C289.833679,224.276764 293.447601,227.186676 295.200348,232.678391 
	C297.055756,238.491776 296.088165,239.929840 290.115234,239.937119 
	C269.315643,239.962463 248.515991,239.946335 227.244110,239.946030 
z"/>
<path fill="#EC8524" opacity="1.000000" stroke="none" 
	d="
M422.962097,314.933014 
	C427.852356,303.594116 432.732819,292.250977 437.657074,280.926819 
	C437.953400,280.245453 438.475189,279.435028 439.100983,279.159943 
	C444.131012,276.948914 450.761047,279.756317 452.869843,284.630157 
	C457.971069,296.419983 463.226471,308.143066 468.391785,319.905273 
	C469.497772,322.423828 470.485352,324.994385 471.713898,327.996429 
	C469.613831,327.996429 467.939423,327.732239 466.380005,328.043640 
	C460.605591,329.196838 457.217224,326.729370 456.221741,321.201721 
	C455.690857,318.253906 454.075592,317.947205 451.689362,317.993744 
	C447.366058,318.078064 443.019958,318.265137 438.720520,317.931274 
	C434.728699,317.621368 432.133209,318.486633 431.433563,322.900757 
	C431.166656,324.584717 430.101562,326.142212 429.304810,327.977081 
	C427.527771,327.977081 425.712677,327.977081 423.661011,327.703125 
	C425.292847,323.309082 421.597015,324.707031 420.012024,323.647827 
	C419.983093,322.826233 419.965973,322.356812 419.948853,321.887390 
	C419.948853,321.887390 420.012268,321.441559 420.345459,321.152710 
	C421.119141,320.575897 421.559570,320.287964 422.229156,319.925812 
	C422.639099,319.234528 422.819885,318.617432 423.000397,317.616760 
	C422.987457,316.466461 422.974762,315.699738 422.962097,314.933014 
M445.379578,308.993164 
	C447.148529,308.993164 448.917480,308.993164 451.210724,308.993164 
	C448.851776,303.361237 446.731018,298.297974 444.230988,292.329224 
	C441.818420,298.215118 439.768921,303.215302 437.400055,308.994629 
	C440.307434,308.994629 442.391144,308.994629 445.379578,308.993164 
z"/>
<path fill="#EC8524" opacity="1.000000" stroke="none" 
	d="
M118.051132,328.003632 
	C116.268211,328.003998 114.960030,328.003998 113.327393,328.003998 
	C113.327393,311.657501 113.327393,295.609924 113.327393,279.274811 
	C125.395683,279.274811 137.438248,279.274811 149.742462,279.274811 
	C149.742462,282.473236 149.742462,285.405273 149.742462,288.998749 
	C143.518097,288.998749 137.233627,289.312592 130.997421,288.898987 
	C126.051254,288.570923 124.327103,290.378235 124.949806,295.115112 
	C125.181473,296.877380 124.987282,298.695679 124.987282,300.851257 
	C132.311752,300.851257 139.246567,300.851257 146.582840,300.851257 
	C146.582840,304.246033 146.582840,307.286438 146.582840,310.886475 
	C139.607361,310.886475 132.544556,310.886475 125.126495,310.886475 
	C125.126495,316.688995 125.126495,321.960175 125.126495,328.003265 
	C122.687469,328.003265 120.606674,328.003265 118.051132,328.003632 
z"/>
<path fill="#EB8525" opacity="1.000000" stroke="none" 
	d="
M243.289200,318.151306 
	C247.337204,318.108307 251.467804,318.937164 254.518097,317.489594 
	C257.700226,315.979401 258.982544,315.669373 260.540985,318.942413 
	C261.136078,320.192200 262.674927,320.992584 263.722992,321.942749 
	C258.574768,330.389557 245.130051,330.711884 236.420731,326.675049 
	C228.049286,322.794830 224.239883,310.891693 228.100601,301.574677 
	C232.273590,291.504089 241.439636,288.243652 251.306412,290.399780 
	C261.633514,292.656525 267.806732,299.878845 265.575043,312.829041 
	C256.911835,312.829041 248.160873,312.829041 237.779816,312.829041 
	C240.149933,315.234619 241.523468,316.628693 243.289200,318.151306 
M243.745850,305.988800 
	C247.442871,305.988800 251.139893,305.988800 255.248169,305.988800 
	C253.434479,300.614349 249.887146,298.712311 245.596451,299.154724 
	C242.214996,299.503418 239.267685,301.453644 239.067123,305.821686 
	C240.534271,305.887177 241.684891,305.938568 243.745850,305.988800 
z"/>
<path fill="#EB8525" opacity="1.000000" stroke="none" 
	d="
M161.336151,325.809448 
	C152.425308,320.420654 151.842560,312.320587 153.239014,303.813049 
	C154.477463,296.268005 162.394363,290.715576 170.821594,289.972290 
	C182.927414,288.904541 190.885056,296.144196 192.861115,302.288635 
	C194.987991,308.902039 195.026337,315.532593 190.147354,321.337341 
	C184.356735,328.226746 176.870712,330.108704 168.367477,328.602936 
	C166.042419,328.191223 163.867386,326.932312 161.336151,325.809448 
M174.302917,299.995728 
	C168.006912,300.182281 164.721802,302.381012 164.514236,308.423309 
	C164.408478,311.501740 166.331970,315.453735 168.646683,317.599030 
	C171.278580,320.038300 175.133606,319.995667 178.529297,317.208405 
	C184.911194,311.969971 183.379501,303.744934 174.302917,299.995728 
z"/>
<path fill="#EC8524" opacity="1.000000" stroke="none" 
	d="
M346.832764,327.013702 
	C343.853455,327.333771 340.398682,328.744629 338.012177,327.704468 
	C334.856995,326.329376 332.706238,327.586060 330.207428,328.335571 
	C323.408417,330.375000 316.673523,328.890076 313.138000,323.258698 
	C311.574097,320.767761 311.411865,316.788177 311.950256,313.718903 
	C312.924652,308.164215 317.698059,306.523773 322.620972,306.074921 
	C326.567596,305.715088 330.573242,306.002228 334.555267,306.002228 
	C334.427917,298.588837 326.603180,297.341736 316.634888,302.844727 
	C311.584351,293.529755 311.608673,293.624054 322.161652,290.900177 
	C328.465088,289.273193 334.669952,289.131622 340.126160,292.849152 
	C342.587463,294.526154 344.060028,297.654297 346.006226,300.968750 
	C346.298462,310.213562 346.565613,318.613617 346.832764,327.013702 
M333.567810,318.973572 
	C334.147247,317.150757 334.726685,315.327942 335.460297,313.019989 
	C331.778473,313.019989 329.053802,312.623260 326.539429,313.178619 
	C325.175323,313.479889 323.595093,315.244171 323.207886,316.650238 
	C322.958527,317.555725 324.578552,319.905853 325.570709,320.038574 
	C327.970612,320.359619 330.493500,319.760895 333.567810,318.973572 
z"/>
<path fill="#EB8525" opacity="1.000000" stroke="none" 
	d="
M366.509247,290.070923 
	C370.541931,290.336304 374.190216,290.317963 377.708923,290.984009 
	C385.463196,292.451843 386.063538,294.075470 382.066559,301.275269 
	C378.172241,300.519501 374.284698,299.375549 370.350189,299.180756 
	C368.619720,299.095093 366.793610,300.941132 365.010925,301.910156 
	C366.750458,302.945831 368.376129,304.341980 370.255341,304.935516 
	C373.335480,305.908447 376.623962,306.202423 379.745453,307.068115 
	C384.425079,308.365997 386.788391,311.819519 386.929291,316.475342 
	C387.061920,320.857208 385.236603,324.502808 381.016602,326.411652 
	C371.212250,330.846405 361.699432,329.566254 352.139069,325.066833 
	C353.521362,321.955322 354.738464,319.215637 356.036438,316.293884 
	C362.492767,318.838776 368.713440,322.330627 375.909668,316.631195 
	C373.303497,315.753113 370.670410,314.946655 368.097290,313.980560 
	C363.932556,312.416901 358.986053,311.683502 355.842163,308.922699 
	C349.928497,303.729706 354.025635,293.262695 362.299042,291.063904 
	C363.551819,290.730988 364.810242,290.419189 366.509247,290.070923 
z"/>
<path fill="#EB8525" opacity="1.000000" stroke="none" 
	d="
M271.166412,314.993622 
	C271.166412,314.993622 271.025208,314.583923 271.031677,313.964294 
	C271.018188,310.513977 270.998199,307.683319 270.978180,304.852631 
	C270.992950,304.441376 271.007721,304.030090 271.252197,303.087067 
	C271.642517,302.024902 271.803131,301.494476 271.963715,300.964081 
	C271.963715,300.964081 271.998779,301.001221 272.286377,300.866821 
	C273.041138,299.785950 273.508240,298.839478 273.975342,297.893005 
	C281.005737,286.253693 304.790161,287.551697 308.006256,300.296722 
	C305.294891,301.725067 302.469696,303.213379 299.660858,304.693054 
	C292.725159,298.114563 288.393219,298.720978 284.212982,302.656006 
	C280.806915,305.862213 281.118896,313.689209 284.554413,316.716278 
	C288.042328,319.789551 293.088928,321.119720 299.455261,314.249969 
	C302.279510,315.707367 305.203522,317.216217 308.016876,318.667969 
	C305.283112,330.530426 284.248016,332.091888 275.985016,323.204102 
	C275.421661,322.448761 275.152496,322.224030 274.883362,321.999298 
	C274.562500,321.968658 274.314392,321.818146 273.922882,321.116638 
	C273.443848,320.456757 273.180908,320.227997 272.917999,319.999207 
	C272.917999,319.999207 272.984558,320.009644 272.924316,319.751648 
	C272.562744,318.998840 272.261414,318.504028 271.960083,318.009186 
	C271.960083,318.009186 272.001678,318.009552 271.992249,317.697205 
	C271.710663,316.587769 271.438538,315.790680 271.166412,314.993622 
z"/>
<path fill="#EC8524" opacity="1.000000" stroke="none" 
	d="
M414.003540,327.841461 
	C405.604431,331.399017 392.707550,327.555634 393.917023,315.216400 
	C394.352631,310.772186 393.986938,306.249390 393.986938,301.424561 
	C392.128937,301.166962 390.402130,300.927551 388.350647,300.643127 
	C388.350647,297.620605 388.350647,294.558075 388.350647,291.205536 
	C390.036804,291.087952 391.654877,290.975128 393.776215,290.827209 
	C393.888702,288.477814 394.004242,286.064850 394.135376,283.325867 
	C397.648895,283.325867 401.040894,283.325867 404.791779,283.325867 
	C404.900635,285.683105 405.005859,287.961060 405.134888,290.754669 
	C408.178741,290.754669 411.242432,290.754669 414.648468,290.754669 
	C414.648468,294.313171 414.648468,297.364319 414.648468,300.785461 
	C411.630890,300.785461 408.688812,300.785461 405.158112,300.785461 
	C405.158112,305.540588 404.844452,309.985046 405.238098,314.365875 
	C405.721771,319.748657 409.573883,319.596466 414.234863,318.487152 
	C414.797485,319.980408 415.397217,321.572205 415.883118,323.815613 
	C415.180664,325.591980 414.592102,326.716705 414.003540,327.841461 
z"/>
<path fill="#E98628" opacity="1.000000" stroke="none" 
	d="
M221.121155,301.004700 
	C214.813980,301.415436 212.160812,304.050049 212.023300,309.988495 
	C211.889297,315.775482 211.994202,321.567993 211.994202,327.679749 
	C207.953217,327.679749 204.249252,327.679749 200.037674,327.679749 
	C200.037674,316.134766 199.931641,304.718109 200.206268,293.310608 
	C200.232910,292.203796 202.666611,290.203918 203.891251,290.271851 
	C206.568100,290.420349 210.997009,287.771301 211.252792,293.209595 
	C215.106094,291.911469 219.030090,290.589508 223.967575,288.926117 
	C223.967575,293.182129 224.099014,296.256805 223.858627,299.302124 
	C223.809509,299.924316 222.364807,300.436371 221.121155,301.004700 
z"/>
<path fill="#EF8522" opacity="1.000000" stroke="none" 
	d="
M486.837830,327.821442 
	C483.395996,327.821442 479.954163,327.821442 476.030212,327.821442 
	C476.030212,312.051758 476.030212,296.508179 476.556396,280.481445 
	C477.746460,279.978180 478.410187,279.946960 479.074219,279.939606 
	C486.873016,279.853119 486.922546,279.854034 486.925934,287.471710 
	C486.931885,300.921631 486.870850,314.371521 486.837830,327.821442 
z"/>
<path fill="#D7883C" opacity="1.000000" stroke="none" 
	d="
M106.417969,245.785126 
	C106.033653,214.995178 105.990570,183.944641 105.983536,152.423462 
	C106.339745,152.643768 106.940392,153.334991 106.939781,154.025681 
	C106.912834,184.525330 106.832840,215.024948 106.417969,245.785126 
z"/>
<path fill="#D7883C" opacity="1.000000" stroke="none" 
	d="
M105.819717,151.609467 
	C84.659721,151.990387 63.272575,151.998230 41.413292,151.988312 
	C41.628719,151.652390 42.316597,151.055756 43.003796,151.056519 
	C63.866760,151.080338 84.729652,151.162964 105.819717,151.609467 
z"/>
<path fill="#E98628" opacity="1.000000" stroke="none" 
	d="
M69.103973,176.296387 
	C68.347031,176.705841 67.738029,177.084503 67.425331,176.915359 
	C65.605263,175.930878 63.494514,175.116211 62.247040,173.610352 
	C61.700375,172.950455 62.733242,169.672516 63.449699,169.524582 
	C65.489182,169.103455 68.268829,168.996460 69.702904,170.116135 
	C70.591248,170.809738 69.558937,173.963272 69.103973,176.296387 
z"/>
<path fill="#D08E51" opacity="1.000000" stroke="none" 
	d="
M17.386086,254.899963 
	C18.197456,254.557922 19.479216,254.076111 20.762327,254.072464 
	C38.813614,254.021332 56.865089,254.030228 74.916496,254.049911 
	C75.731079,254.050812 76.545403,254.292633 77.738419,254.612671 
	C58.030365,254.862915 37.943733,254.922745 17.386086,254.899963 
z"/>
<path fill="#D08E51" opacity="1.000000" stroke="none" 
	d="
M487.267822,327.713654 
	C486.870850,314.371521 486.931885,300.921631 486.925934,287.471710 
	C486.922546,279.854034 486.873016,279.853119 479.074219,279.939606 
	C478.410187,279.946960 477.746460,279.978180 476.636719,280.021759 
	C479.932556,279.556946 483.674286,279.068665 487.697784,278.543610 
	C487.697784,295.436676 487.697784,311.521271 487.267822,327.713654 
z"/>
<path fill="#EC8524" opacity="1.000000" stroke="none" 
	d="
M38.692802,233.687073 
	C36.612164,237.062195 34.184078,235.323151 32.196526,234.401703 
	C31.455860,234.058334 30.816664,231.401764 31.199701,231.082687 
	C33.102734,229.497406 35.362270,228.340103 37.496243,227.032074 
	C37.968739,227.387894 38.441231,227.743729 38.913723,228.099548 
	C38.913723,229.862991 38.913723,231.626450 38.692802,233.687073 
z"/>
<path fill="#D7883C" opacity="1.000000" stroke="none" 
	d="
M43.877197,202.775208 
	C43.064018,203.850311 41.561539,204.703506 41.665840,205.250092 
	C42.873543,211.579132 40.039139,218.384521 43.926506,224.734070 
	C40.653458,223.340820 39.747322,220.589737 39.926296,216.930344 
	C40.204338,211.245392 39.999760,205.536835 41.113552,199.403107 
	C42.053799,200.405701 42.994041,201.408279 43.877197,202.775208 
z"/>
<path fill="#FF8080" opacity="1.000000" stroke="none" 
	d="
M29.469582,217.822281 
	C29.183332,201.577301 29.258202,185.092667 29.578115,168.261780 
	C29.825674,184.471207 29.828186,201.026932 29.469582,217.822281 
z"/>
<path fill="#D08E51" opacity="1.000000" stroke="none" 
	d="
M40.611252,152.156311 
	C41.011482,161.793549 40.935154,171.669083 41.170662,181.537201 
	C41.213432,183.329376 42.532150,185.091125 43.649055,186.939529 
	C43.219257,187.946060 42.402233,188.879974 41.585209,189.813889 
	C41.137363,189.722794 40.689514,189.631699 40.241669,189.540588 
	C40.241669,177.157745 40.241669,164.774902 40.611252,152.156311 
z"/>
<path fill="#D7883C" opacity="1.000000" stroke="none" 
	d="
M346.910034,326.548950 
	C346.565613,318.613617 346.298462,310.213562 346.030457,301.334534 
	C346.361420,304.167633 346.881165,307.473969 346.981293,310.792969 
	C347.134918,315.885468 346.999847,320.986664 346.910034,326.548950 
z"/>
<path fill="#EC8524" opacity="1.000000" stroke="none" 
	d="
M420.023804,324.000000 
	C421.597015,324.707031 425.292847,323.309082 423.234863,327.631287 
	C421.658997,327.871307 420.272705,327.909180 418.699707,327.652222 
	C419.016571,326.238281 419.520203,325.119141 420.023804,324.000000 
z"/>
<path fill="#E98628" opacity="1.000000" stroke="none" 
	d="
M420.012024,323.647827 
	C419.520203,325.119141 419.016571,326.238281 418.289490,327.579346 
	C416.919922,327.856537 415.773743,327.911804 414.315552,327.904266 
	C414.592102,326.716705 415.180664,325.591980 415.908203,324.181396 
	C416.520538,324.445007 416.993958,324.994507 417.600983,325.699066 
	C418.203064,324.501526 418.781586,323.350861 419.654480,322.043762 
	C419.965973,322.356812 419.983093,322.826233 420.012024,323.647827 
z"/>
<path fill="#D7883C" opacity="1.000000" stroke="none" 
	d="
M270.628906,305.088409 
	C270.998199,307.683319 271.018188,310.513977 271.012115,313.748535 
	C270.750580,311.209656 270.515106,308.266937 270.628906,305.088409 
z"/>
<path fill="#E98628" opacity="1.000000" stroke="none" 
	d="
M422.650269,315.094727 
	C422.974762,315.699738 422.987457,316.466461 422.822449,317.837036 
	C422.429840,318.960571 422.214905,319.480286 422.000000,320.000000 
	C421.559570,320.287964 421.119141,320.575897 420.424896,320.942017 
	C420.893555,319.098969 421.615997,317.177704 422.650269,315.094727 
z"/>
<path fill="#D7883C" opacity="1.000000" stroke="none" 
	d="
M54.373615,174.876312 
	C54.423752,173.085434 54.813061,171.117661 55.513821,168.932770 
	C55.454441,170.710236 55.083614,172.704834 54.373615,174.876312 
z"/>
<path fill="#D7883C" opacity="1.000000" stroke="none" 
	d="
M273.670410,298.022308 
	C273.508240,298.839478 273.041138,299.785950 272.264832,300.852600 
	C272.425629,300.032410 272.895569,299.092010 273.670410,298.022308 
z"/>
<path fill="#D7883C" opacity="1.000000" stroke="none" 
	d="
M271.095154,315.336639 
	C271.438538,315.790680 271.710663,316.587769 271.972046,317.705231 
	C271.648834,317.243652 271.336395,316.461639 271.095154,315.336639 
z"/>
<path fill="#D7883C" opacity="1.000000" stroke="none" 
	d="
M271.674011,301.088440 
	C271.803131,301.494476 271.642517,302.024902 271.320312,302.786011 
	C271.233887,302.415436 271.309082,301.814087 271.674011,301.088440 
z"/>
<path fill="#D7883C" opacity="1.000000" stroke="none" 
	d="
M271.982727,318.325684 
	C272.261414,318.504028 272.562744,318.998840 272.914856,319.783997 
	C272.645538,319.596924 272.325470,319.119568 271.982727,318.325684 
z"/>
<path fill="#D7883C" opacity="1.000000" stroke="none" 
	d="
M43.989014,225.269989 
	C44.179039,225.232956 44.461281,225.471069 44.882858,225.952316 
	C44.708542,225.978683 44.394886,225.761917 43.989014,225.269989 
z"/>
<path fill="#D7883C" opacity="1.000000" stroke="none" 
	d="
M48.271793,181.999298 
	C48.208237,181.796890 48.411373,181.525970 48.839554,181.131683 
	C48.889225,181.315796 48.713852,181.623291 48.271793,181.999298 
z"/>
<path fill="#D7883C" opacity="1.000000" stroke="none" 
	d="
M274.979736,322.260681 
	C275.152496,322.224030 275.421661,322.448761 275.841705,322.890442 
	C275.687103,322.912292 275.381592,322.717194 274.979736,322.260681 
z"/>
<path fill="#D7883C" opacity="1.000000" stroke="none" 
	d="
M272.997559,320.267670 
	C273.180908,320.227997 273.443848,320.456757 273.852692,320.903992 
	C273.691437,320.927032 273.384277,320.731598 272.997559,320.267670 
z"/>
<path fill="#D08E51" opacity="1.000000" stroke="none" 
	d="
M44.255447,186.969727 
	C44.190468,186.761963 44.387329,186.479324 44.827126,186.093872 
	C44.885807,186.292328 44.701550,186.593582 44.255447,186.969727 
z"/>
<path fill="#D08E51" opacity="1.000000" stroke="none" 
	d="
M45.222168,185.995483 
	C45.127541,185.813736 45.301281,185.590607 45.654335,185.241730 
	C45.939468,185.475128 45.825096,185.754501 45.222168,185.995483 
z"/>
<path fill="#D7883C" opacity="1.000000" stroke="none" 
	d="
M46.256622,184.023758 
	C46.212978,183.851471 46.427975,183.573502 46.857521,183.140717 
	C46.886471,183.296646 46.700871,183.607346 46.256622,184.023758 
z"/>
<path fill="#D7883C" opacity="1.000000" stroke="none" 
	d="
M47.254555,182.994537 
	C47.202549,182.805466 47.413719,182.537537 47.845123,182.136139 
	C47.882816,182.306992 47.700279,182.611328 47.254555,182.994537 
z"/>
<path fill="#D7883C" opacity="1.000000" stroke="none" 
	d="
M53.225906,176.090302 
	C53.176311,175.915237 53.384670,175.609192 53.827602,175.151703 
	C53.869404,175.319946 53.676636,175.639633 53.225906,176.090302 
z"/>
<path fill="#D7883C" opacity="1.000000" stroke="none" 
	d="
M52.315144,177.955444 
	C52.171787,177.737244 52.319633,177.417236 52.652824,176.901276 
	C52.760895,177.088074 52.683620,177.470856 52.315144,177.955444 
z"/>
<path fill="#D7883C" opacity="1.000000" stroke="none" 
	d="
M51.275158,179.002502 
	C51.211082,178.802597 51.411602,178.532242 51.834633,178.137390 
	C51.884678,178.319260 51.712215,178.625656 51.275158,179.002502 
z"/>
<path fill="#D7883C" opacity="1.000000" stroke="none" 
	d="
M50.275589,180.003296 
	C50.213684,179.801346 50.420563,179.532852 50.849716,179.136459 
	C50.896122,179.317947 50.720249,179.627350 50.275589,180.003296 
z"/>
<path fill="#D7883C" opacity="1.000000" stroke="none" 
	d="
M49.275780,180.997711 
	C49.212437,180.794205 49.416248,180.523895 49.845570,180.131012 
	C49.895031,180.315948 49.718987,180.623428 49.275780,180.997711 
z"/>
<path fill="#000000" opacity="1.000000" stroke="none" 
	d="
M444.927216,308.993896 
	C442.391144,308.994629 440.307434,308.994629 437.400055,308.994629 
	C439.768921,303.215302 441.818420,298.215118 444.230988,292.329224 
	C446.731018,298.297974 448.851776,303.361237 451.210724,308.993164 
	C448.917480,308.993164 447.148529,308.993164 444.927216,308.993896 
z"/>
<path fill="#EC8524" opacity="1.000000" stroke="none" 
	d="
M422.229156,319.925781 
	C422.214905,319.480286 422.429840,318.960571 422.822723,318.220612 
	C422.819885,318.617432 422.639099,319.234528 422.229156,319.925781 
z"/>
<path fill="#000000" opacity="1.000000" stroke="none" 
	d="
M243.290680,305.989380 
	C241.684891,305.938568 240.534271,305.887177 239.067123,305.821686 
	C239.267685,301.453644 242.214996,299.503418 245.596451,299.154724 
	C249.887146,298.712311 253.434479,300.614349 255.248169,305.988800 
	C251.139893,305.988800 247.442871,305.988800 243.290680,305.989380 
z"/>
<path fill="#000000" opacity="1.000000" stroke="none" 
	d="
M174.715057,299.996155 
	C183.379501,303.744934 184.911194,311.969971 178.529297,317.208405 
	C175.133606,319.995667 171.278580,320.038300 168.646683,317.599030 
	C166.331970,315.453735 164.408478,311.501740 164.514236,308.423309 
	C164.721802,302.381012 168.006912,300.182281 174.715057,299.996155 
z"/>
<path fill="#000000" opacity="1.000000" stroke="none" 
	d="
M333.267334,319.253235 
	C330.493500,319.760895 327.970612,320.359619 325.570709,320.038574 
	C324.578552,319.905853 322.958527,317.555725 323.207886,316.650238 
	C323.595093,315.244171 325.175323,313.479889 326.539429,313.178619 
	C329.053802,312.623260 331.778473,313.019989 335.460297,313.019989 
	C334.726685,315.327942 334.147247,317.150757 333.267334,319.253235 
z"/>
</svg>